<svg width="22" height="11" viewBox="0 0 22 11" fill="none" xmlns="http://www.w3.org/2000/svg">
<path d="M20.9589 4.96262L16.1639 0.167615C15.9917 -0.033516 15.689 -0.0569626 15.4878 0.115323C15.2867 0.287568 15.2632 0.590274 15.4355 0.791405C15.4516 0.810154 15.4691 0.827667 15.4878 0.843697L19.4628 4.82354H0.479484C0.214688 4.82354 0 5.03823 0 5.30307C0 5.5679 0.214688 5.78255 0.479484 5.78255H19.4628L15.4878 9.75758C15.2867 9.92982 15.2632 10.2325 15.4355 10.4337C15.6078 10.6348 15.9105 10.6582 16.1116 10.4859C16.1304 10.4699 16.1479 10.4524 16.1639 10.4337L20.9589 5.63866C21.1448 5.4517 21.1448 5.14965 20.9589 4.96262Z" fill="#2F773A"/>
</svg>
