<svg width="23" height="22" viewBox="0 0 23 22" fill="none" xmlns="http://www.w3.org/2000/svg">
<path d="M20.1346 0H3.73457C2.99196 0 2.27977 0.294999 1.75467 0.820101C1.22957 1.3452 0.93457 2.05739 0.93457 2.8V19.2C0.93457 19.9426 1.22957 20.6548 1.75467 21.1799C2.27977 21.705 2.99196 22 3.73457 22H11.7681V12.8462H9.93732V9.1847H11.7529V7.53C11.7529 6.0324 12.4663 3.6927 15.6059 3.6927L18.4341 3.70405V6.8411H16.3802C16.0463 6.8411 15.5711 7.0074 15.5711 7.7207V9.18495H18.4808L18.1468 12.8464H15.4296V22H20.1346C20.5023 22 20.8664 21.9276 21.2061 21.7869C21.5458 21.6461 21.8545 21.4399 22.1145 21.1799C22.3745 20.9199 22.5807 20.6112 22.7214 20.2715C22.8621 19.9318 22.9346 19.5677 22.9346 19.2V2.8C22.9346 2.4323 22.8621 2.0682 22.7214 1.72849C22.5807 1.38877 22.3745 1.08011 22.1145 0.820101C21.8545 0.560097 21.5458 0.35385 21.2061 0.213137C20.8664 0.0724241 20.5023 0 20.1346 0Z" fill="black"/>
</svg>
