<svg width="22" height="22" viewBox="0 0 22 22" fill="none" xmlns="http://www.w3.org/2000/svg">
<g clip-path="url(#clip0_56_381)">
<path d="M16.1083 3.89844H5.8263C4.7633 3.89844 3.89844 4.7633 3.89844 5.8263V16.1083C3.89844 17.1713 4.7633 18.0361 5.8263 18.0361H16.1083C17.1713 18.0361 18.0361 17.1713 18.0361 16.1083V5.8263C18.0361 4.7633 17.1713 3.89844 16.1083 3.89844ZM10.9673 15.4656C8.48716 15.4656 6.46893 13.4474 6.46893 10.9673C6.46893 8.48716 8.48716 6.46893 10.9673 6.46893C13.4474 6.46893 15.4656 8.48716 15.4656 10.9673C15.4656 13.4474 13.4474 15.4656 10.9673 15.4656ZM15.4656 7.75417C14.7571 7.75417 14.1804 7.17748 14.1804 6.46893C14.1804 5.76037 14.7571 5.18368 15.4656 5.18368C16.1742 5.18368 16.7509 5.76037 16.7509 6.46893C16.7509 7.17748 16.1742 7.75417 15.4656 7.75417Z" fill="black"/>
<path d="M10.967 7.75391C9.19546 7.75391 7.75391 9.19546 7.75391 10.967C7.75391 12.7386 9.19546 14.1801 10.967 14.1801C12.7386 14.1801 14.1801 12.7386 14.1801 10.967C14.1801 9.19546 12.7386 7.75391 10.967 7.75391Z" fill="black"/>
<path d="M18.6789 0H3.25595C1.48439 0 0 1.48439 0 3.25595V18.6789C0 20.4504 1.48439 21.9348 3.25595 21.9348H18.6789C20.4504 21.9348 21.9348 20.4504 21.9348 18.6789V3.25595C21.9348 1.48439 20.4504 0 18.6789 0ZM19.3215 16.1084C19.3215 17.88 17.88 19.3215 16.1084 19.3215H5.82644C4.05488 19.3215 2.61333 17.88 2.61333 16.1084V5.82644C2.61333 4.05488 4.05488 2.61333 5.82644 2.61333H16.1084C17.88 2.61333 19.3215 4.05488 19.3215 5.82644V16.1084Z" fill="black"/>
</g>
<defs>
<clipPath id="clip0_56_381">
<rect width="21.9348" height="21.9348" fill="white"/>
</clipPath>
</defs>
</svg>
