<svg width="35" height="35" viewBox="0 0 35 35" fill="none" xmlns="http://www.w3.org/2000/svg">
<path fill-rule="evenodd" clip-rule="evenodd" d="M21.0314 32.2103C21.0314 30.9494 20.0508 29.9272 18.8411 29.9272H16.1589C15.578 29.9272 15.0209 30.1678 14.6101 30.5959C14.1993 31.0241 13.9686 31.6048 13.9686 32.2103C13.9686 33.4712 14.9492 34.4934 16.1589 34.4934H18.8411C20.0508 34.4934 21.0314 33.4712 21.0314 32.2103ZM4.60476 26.3233C4.97062 26.3524 5.41324 26.3691 5.85785 26.342C6.09472 27.594 6.68315 28.7553 7.5615 29.6709C8.72758 30.8862 10.3091 31.569 11.9581 31.569H12.7939C12.757 31.7792 12.7381 31.9938 12.7381 32.2103C12.7381 32.4293 12.757 32.6437 12.7933 32.8516H11.9581C9.98272 32.8516 8.08821 32.0337 6.69143 30.5778C5.5771 29.4162 4.85229 27.9246 4.60476 26.3233ZM3.97886 24.9586C3.0074 24.7878 2.10342 24.3065 1.39774 23.5709C0.502783 22.638 0 21.3728 0 20.0536V17.0223C0 15.7031 0.502783 14.4379 1.39774 13.505C2.29271 12.5722 3.50656 12.0481 4.77224 12.0481H5.0899C5.59768 5.36779 10.9599 0.111328 17.5 0.111328C24.0401 0.111328 29.4023 5.36779 29.9101 12.0481H30.2278C31.4934 12.0481 32.7073 12.5722 33.6023 13.505C34.4972 14.4379 35 15.7031 35 17.0223V20.0536C35 21.3728 34.4972 22.638 33.6023 23.5709C32.7073 24.5038 31.4934 25.0278 30.2278 25.0278H28.8195C28.2354 25.0278 27.762 24.5343 27.762 23.9256V13.0876C27.762 7.18023 23.1675 2.39139 17.5 2.39139C11.8325 2.39139 7.23803 7.18023 7.23803 13.0876V23.9256C7.23803 24.3553 7.00198 24.7278 6.65759 24.9095C5.70958 25.2524 4.23938 25.0044 3.97886 24.9586Z" fill="black"/>
</svg>
