<svg width="88" height="88" viewBox="0 0 88 88" fill="none" xmlns="http://www.w3.org/2000/svg">
<path d="M48.2582 26.9686C49.0421 26.9686 49.6776 26.3331 49.6776 25.5492C49.6776 24.7653 49.0421 24.1299 48.2582 24.1299C47.4743 24.1299 46.8389 24.7653 46.8389 25.5492C46.8389 26.3331 47.4743 26.9686 48.2582 26.9686Z" fill="#2F773A"/>
<path d="M53.935 26.9686C54.7189 26.9686 55.3543 26.3331 55.3543 25.5492C55.3543 24.7653 54.7189 24.1299 53.935 24.1299C53.1511 24.1299 52.5156 24.7653 52.5156 25.5492C52.5156 26.3331 53.1511 26.9686 53.935 26.9686Z" fill="#2F773A"/>
<path d="M46.8383 15.6131C47.6222 15.6131 48.2576 14.9776 48.2576 14.1938C48.2576 13.4099 47.6222 12.7744 46.8383 12.7744C46.0544 12.7744 45.4189 13.4099 45.4189 14.1938C45.4189 14.9776 46.0544 15.6131 46.8383 15.6131Z" fill="#2F773A"/>
<path d="M55.3549 15.6131C56.1388 15.6131 56.7742 14.9776 56.7742 14.1938C56.7742 13.4099 56.1388 12.7744 55.3549 12.7744C54.571 12.7744 53.9355 13.4099 53.9355 14.1938C53.9355 14.9776 54.571 15.6131 55.3549 15.6131Z" fill="#2F773A"/>
<path d="M21.2904 38.3231C22.0743 38.3231 22.7098 37.6876 22.7098 36.9037C22.7098 36.1198 22.0743 35.4844 21.2904 35.4844C20.5066 35.4844 19.8711 36.1198 19.8711 36.9037C19.8711 37.6876 20.5066 38.3231 21.2904 38.3231Z" fill="#2F773A"/>
<path d="M12.7738 38.3231C13.5577 38.3231 14.1932 37.6876 14.1932 36.9037C14.1932 36.1198 13.5577 35.4844 12.7738 35.4844C11.99 35.4844 11.3545 36.1198 11.3545 36.9037C11.3545 37.6876 11.99 38.3231 12.7738 38.3231Z" fill="#2F773A"/>
<path d="M36.9452 19.0964C36.9282 19.3561 36.9026 19.6158 36.9026 19.8714C36.9026 26.9143 43.2699 32.6457 51.0962 32.6457C58.9225 32.6457 65.2898 26.9143 65.2898 19.8714C65.2898 19.616 65.2642 19.3547 65.2472 19.0964C69.3875 18.049 72.3866 14.3004 72.3866 9.93577C72.3866 9.50574 72.1906 9.09839 71.8557 8.82872C71.5207 8.56042 71.0793 8.45541 70.6591 8.55045L64.8 9.85207C65.0767 9.02466 65.233 8.1517 65.25 7.26465C65.294 4.96531 64.4097 2.79091 62.759 1.14005L62.035 0.416109C61.703 0.0824991 61.2274 -0.0635949 60.7633 0.0257802C60.3006 0.115155 59.9117 0.427453 59.7273 0.860407L57.4422 6.19456C55.5318 4.99659 53.3828 4.25855 51.0962 4.25855C48.8096 4.25855 46.6608 4.99659 44.7502 6.19456L42.4651 0.860579C42.2805 0.427625 41.8916 0.115327 41.4289 0.0259521C40.9662 -0.0634231 40.4906 0.082671 40.1572 0.416281L39.4333 1.14022C37.7826 2.79091 36.8983 4.96685 36.9423 7.26483C36.9593 8.15187 37.1154 9.02483 37.3922 9.85224L31.5332 8.55063C31.1131 8.45403 30.6731 8.55922 30.3366 8.82889C30.0016 9.09856 29.8057 9.50591 29.8057 9.93594C29.8058 14.3019 32.8049 18.049 36.9452 19.0964ZM42.4878 26.3323C44.2435 23.2523 47.5195 21.2907 51.0962 21.2907C54.6729 21.2907 57.9489 23.2508 59.7046 26.3323C57.6209 28.4557 54.5382 29.807 51.0962 29.807C47.6542 29.807 44.5715 28.4557 42.4878 26.3323ZM64.7775 16.289C64.4808 15.1903 64.0706 14.0976 63.5398 13.0416L69.2911 11.7642C68.6679 13.9229 66.9675 15.6503 64.7775 16.289ZM61.4675 4.00727C62.2581 5.16692 62.4285 6.34925 62.4128 7.21069C62.3929 8.20705 62.0935 9.16233 61.6052 10.0068C61.0418 9.28436 60.4271 8.60872 59.7628 7.98705L61.4675 4.00727ZM62.4511 19.8714C62.4511 21.2907 62.1034 22.6391 61.4874 23.8611C59.12 20.5271 55.2678 18.452 51.0964 18.452C46.925 18.452 43.0727 20.5271 40.7053 23.8611C40.0893 22.6391 39.7416 21.2907 39.7416 19.8714C39.7416 14.1216 44.9805 7.09708 51.0965 7.09708C57.2126 7.09708 62.4511 14.1216 62.4511 19.8714ZM40.7249 4.00727L42.4296 7.98722C41.7653 8.60752 41.1506 9.28453 40.5872 10.0069C40.1003 9.16233 39.7995 8.20722 39.7796 7.21086C39.7641 6.34925 39.9345 5.16692 40.7249 4.00727ZM38.6528 13.04C38.1205 14.096 37.7118 15.189 37.4151 16.289C35.2251 15.6503 33.5247 13.9229 32.9015 11.7626L38.6528 13.04Z" fill="#2F773A"/>
<path d="M78.0649 68.1297C78.8487 68.1297 79.4842 67.4942 79.4842 66.7104C79.4842 65.9265 78.8487 65.291 78.0649 65.291C77.281 65.291 76.6455 65.9265 76.6455 66.7104C76.6455 67.4942 77.281 68.1297 78.0649 68.1297Z" fill="#2F773A"/>
<path d="M55.3549 68.1297C56.1388 68.1297 56.7742 67.4942 56.7742 66.7104C56.7742 65.9265 56.1388 65.291 55.3549 65.291C54.571 65.291 53.9355 65.9265 53.9355 66.7104C53.9355 67.4942 54.571 68.1297 55.3549 68.1297Z" fill="#2F773A"/>
<path d="M32.6449 68.1297C33.4288 68.1297 34.0643 67.4942 34.0643 66.7104C34.0643 65.9265 33.4288 65.291 32.6449 65.291C31.8611 65.291 31.2256 65.9265 31.2256 66.7104C31.2256 67.4942 31.8611 68.1297 32.6449 68.1297Z" fill="#2F773A"/>
<path d="M9.93497 68.1297C10.7189 68.1297 11.3543 67.4942 11.3543 66.7104C11.3543 65.9265 10.7189 65.291 9.93497 65.291C9.15109 65.291 8.51562 65.9265 8.51562 66.7104C8.51562 67.4942 9.15109 68.1297 9.93497 68.1297Z" fill="#2F773A"/>
<path d="M85.1613 66.71C85.1613 62.7969 81.9777 59.6133 78.0646 59.6133C74.1515 59.6133 70.9679 62.7969 70.9679 66.71V70.968H62.4518V66.71C62.4518 62.7969 59.2682 59.6133 55.3551 59.6133C51.442 59.6133 48.2584 62.7969 48.2584 66.71V70.968H39.7423V66.71C39.7423 62.7969 36.5587 59.6133 32.6456 59.6133C28.7325 59.6133 25.5489 62.7969 25.5489 66.71V70.968H17.0321V66.71C17.0321 62.7969 13.8485 59.6133 9.93541 59.6133C6.02233 59.6133 2.83869 62.7969 2.83869 66.71V85.1616H0V88.0003H88V85.1616H85.1613V66.71ZM78.0644 62.452C80.4121 62.452 82.3225 64.3624 82.3225 66.71V85.1616H73.8064V66.71C73.8064 64.3625 75.7168 62.452 78.0644 62.452ZM70.9677 85.1616H62.4516V79.4843H70.9677V85.1616ZM70.9677 73.8069V76.6456H62.4516V73.8069H70.9677ZM55.3548 62.452C57.7024 62.452 59.6128 64.3624 59.6128 66.71V85.1616H51.0967V66.71C51.0967 64.3625 53.0071 62.452 55.3548 62.452ZM48.258 85.1616H39.742V79.4843H48.258V85.1616ZM48.258 73.8069V76.6456H39.742V73.8069H48.258ZM32.6451 62.452C34.9927 62.452 36.9031 64.3624 36.9031 66.71V85.1616H28.387V66.71C28.387 64.3625 30.2974 62.452 32.6451 62.452ZM25.5484 85.1616H17.0321V79.4843H25.5482L25.5484 85.1616ZM25.5484 73.8069V76.6456H17.0321V73.8069H25.5484ZM5.67738 66.71C5.67738 64.3624 7.58777 62.452 9.93541 62.452C12.283 62.452 14.1934 64.3624 14.1934 66.71V85.1616H5.67738V66.71Z" fill="#2F773A"/>
<path d="M84.6512 32.3247L85.5766 31.3994C87.2373 29.7401 87.2373 27.0377 85.5766 25.3784L84.9706 24.7724C83.5413 23.3417 81.2832 23.1188 79.5983 24.2401L78.8503 24.7383C78.3749 25.0563 77.7559 25.0591 77.2762 24.7383L76.5296 24.2416C74.8449 23.1189 72.5852 23.3432 71.1573 24.7739L70.5513 25.3799C68.8906 27.0392 68.8906 29.7416 70.5513 31.4009L71.4766 32.3263C70.104 33.5469 69.0694 35.1366 68.5372 36.9434C65.8589 37.125 63.3636 38.245 61.4475 40.1611C61.1382 40.4704 60.9892 40.9034 61.0416 41.3377C61.0942 41.772 61.3453 42.1567 61.72 42.381L68.1283 46.2233V56.586L73.8086 52.802L78.071 55.6407L82.3247 52.802L87.9994 56.5903V39.7425C87.9995 36.7914 86.6993 34.1458 84.6512 32.3247ZM72.5583 29.3908C72.2913 29.1225 72.1439 28.7662 72.1439 28.3874C72.1439 28.0086 72.2915 27.6521 72.5583 27.384L73.1643 26.778C73.6412 26.3026 74.3934 26.2273 74.9556 26.602L75.7007 27.0987C77.1384 28.0581 78.9921 28.0554 80.4243 27.0987L81.1723 26.6004C81.7343 26.2285 82.488 26.301 82.9636 26.7778L83.5696 27.3838C83.8365 27.6521 83.984 28.0084 83.984 28.3873C83.984 28.7661 83.8364 29.1225 83.5696 29.3907L82.2269 30.7333C80.9595 30.1443 79.5515 29.8064 78.0639 29.8064C76.5764 29.8064 75.1685 30.1442 73.9009 30.7333L72.5583 29.3908ZM64.9265 40.9912C65.8988 40.3823 66.9859 39.9863 68.1285 39.8245V42.9116L64.9265 40.9912ZM85.1608 51.2816L82.3264 49.3896L78.0712 52.2283L73.8102 49.3896L70.9672 51.2845V39.7422C70.9672 35.8291 74.1509 32.6455 78.0639 32.6455C81.977 32.6455 85.1607 35.8291 85.1607 39.7422L85.1608 51.2816Z" fill="#2F773A"/>
<path d="M75.226 39.742C76.0099 39.742 76.6453 39.1065 76.6453 38.3227C76.6453 37.5388 76.0099 36.9033 75.226 36.9033C74.4421 36.9033 73.8066 37.5388 73.8066 38.3227C73.8066 39.1065 74.4421 39.742 75.226 39.742Z" fill="#2F773A"/>
<path d="M12.7738 51.0975C13.5577 51.0975 14.1932 50.462 14.1932 49.6781C14.1932 48.8943 13.5577 48.2588 12.7738 48.2588C11.99 48.2588 11.3545 48.8943 11.3545 49.6781C11.3545 50.462 11.99 51.0975 12.7738 51.0975Z" fill="#2F773A"/>
<path d="M21.2904 51.0975C22.0743 51.0975 22.7098 50.462 22.7098 49.6781C22.7098 48.8943 22.0743 48.2588 21.2904 48.2588C20.5066 48.2588 19.8711 48.8943 19.8711 49.6781C19.8711 50.462 20.5066 51.0975 21.2904 51.0975Z" fill="#2F773A"/>
<path d="M3.19034 36.9509C2.96604 37.8509 2.83834 38.7833 2.83834 39.7429C2.83834 42.6156 3.91428 45.7992 5.78772 48.5783C5.731 48.9389 5.67703 49.3022 5.67703 49.6783C5.67703 53.5914 8.86068 56.775 12.7738 56.775H21.2898C25.2029 56.775 28.3866 53.5914 28.3866 49.6783C28.3866 49.3022 28.3326 48.9389 28.2759 48.5783C30.1495 45.7992 31.2253 42.6156 31.2253 39.7429C31.2253 38.6472 31.0549 37.5882 30.7653 36.5735C33.719 33.5005 34.4656 28.8565 32.4956 24.9148L32.1025 24.1299H31.2254C27.8601 24.1299 25.0144 26.1879 23.0414 28.1865C21.2134 27.4144 19.1821 26.9687 17.0318 26.9687C14.7538 26.9687 12.6062 27.4655 10.6972 28.3285C8.69155 26.2575 5.80181 24.1301 2.3741 24.1301H1.49702L1.10532 24.915C-0.954264 29.0323 -0.0386847 33.919 3.19034 36.9509ZM21.29 53.9363H12.7738C10.4261 53.9363 8.51572 52.0259 8.51572 49.6783C8.51572 47.3306 10.4261 45.4203 12.7738 45.4203C14.0001 45.4203 15.1328 45.944 15.9645 46.8936L17.0318 48.1156L18.0991 46.8936C18.9309 45.944 20.0635 45.4203 21.2898 45.4203C23.6375 45.4203 25.5479 47.3306 25.5479 49.6783C25.5481 52.0259 23.6377 53.9363 21.29 53.9363ZM30.3228 27.0423C31.1261 29.2963 30.7968 31.7446 29.5094 33.6566C28.5528 32.074 27.2244 30.7029 25.646 29.6129C26.9361 28.4247 28.5514 27.3319 30.3228 27.0423ZM28.3867 39.7427C28.3867 41.5324 27.8502 43.4983 26.8894 45.369C25.5907 43.6857 23.5751 42.5814 21.29 42.5814C19.7486 42.5814 18.2554 43.0967 17.032 44.0263C15.8086 43.0967 14.3153 42.5814 12.7739 42.5814C10.4889 42.5814 8.47327 43.6857 7.17458 45.369C6.21362 43.4997 5.6772 41.5324 5.6772 39.7427C5.6772 34.264 10.7712 29.8073 17.0321 29.8073C23.293 29.8073 28.3867 34.264 28.3867 39.7427ZM3.27834 27.0423C5.13201 27.3446 6.81536 28.5256 8.14808 29.7944C6.56545 30.9427 5.26814 32.3904 4.34981 34.0411C2.85535 32.091 2.4181 29.4553 3.27834 27.0423Z" fill="#2F773A"/>
</svg>
