<svg width="79" height="79" viewBox="0 0 79 79" fill="none" xmlns="http://www.w3.org/2000/svg">
<path d="M0.906138 53.912L2.31604 54.3816C9.07403 56.6298 15.3795 60.0596 20.9388 64.5114L32.0969 73.4383C32.1725 73.4906 32.2537 73.5351 32.3392 73.5698L32.3314 73.5869L36.8697 75.8579V78.994H39.5026V59.9037L44.2423 56.3487L44.2283 56.3305C44.2822 56.2995 44.3339 56.2648 44.3836 56.2265C52.7208 47.9162 63.5791 42.6059 75.2575 41.1261L77.8469 40.8025C78.5686 40.7119 79.0802 40.0538 78.9896 39.332C78.9275 38.8365 78.5899 38.4187 78.1182 38.2535L67.1657 34.4209C58.2439 31.2982 48.4797 35.9996 45.3571 44.9219C45.2991 45.0871 45.2437 45.2538 45.1908 45.421L42.3244 54.4966L39.5031 56.6122V37.6596C39.5 35.1339 40.7634 32.7744 42.8671 31.3759L42.8526 31.3547C42.9287 31.3143 43.0007 31.2661 43.0669 31.2112C48.3555 25.9211 51.1183 18.6148 50.6534 11.149L50.0357 1.23366C49.9968 0.609746 49.5251 0.0997385 48.9064 0.0117169C48.2887 -0.0706093 47.6969 0.287691 47.483 0.872775L43.2249 12.7909C41.6322 17.2422 40.8182 21.9353 40.8198 26.6636V29.63C38.3303 31.5509 36.8718 34.5167 36.8697 37.6612V40.2692L35.5307 38.9302C35.3065 29.1401 28.9576 20.5456 19.6661 17.4529L10.9546 14.5565C10.2644 14.3256 9.51879 14.6979 9.28838 15.3875C9.21227 15.6143 9.19985 15.8577 9.25214 16.0912L10.7004 22.6245C13.02 33.2834 22.4797 40.8667 33.3877 40.8128H33.6916L36.8702 43.9909V72.9138L34.2368 71.5971V68.8892C34.2363 57.5095 25.0111 48.2848 13.6315 48.2854C11.417 48.2854 9.21641 48.6426 7.11529 49.3432L0.906138 51.4127C0.214909 51.64 -0.160995 52.3841 0.0663083 53.0748C0.196787 53.4719 0.508488 53.7836 0.906138 53.9146V53.912ZM47.7015 46.2112C49.6075 40.1936 55.1844 36.098 61.4966 36.0799C63.1317 36.0825 64.7544 36.3605 66.2969 36.9026L72.112 38.9385C62.5689 40.6508 53.6342 44.8132 46.1834 51.0182L47.7015 46.2112ZM43.4527 26.6636C43.4511 22.2377 44.2117 17.8444 45.7014 13.6768L47.8082 7.7892L48.0277 11.3137C48.3705 16.8358 46.7499 22.3014 43.4527 26.7439V26.6636ZM13.2752 22.0461L12.3272 17.7817L18.8325 19.9502C26.0394 22.349 31.3368 28.525 32.6105 36.0126L22.0018 25.4039L20.1399 27.2653L30.906 38.0314C22.2157 37.0202 15.1299 30.5961 13.2752 22.0461ZM7.95097 51.8409C17.3657 48.7017 27.542 53.7888 30.6807 63.203C31.2922 65.0364 31.6039 66.9568 31.6034 68.8892V69.6715L22.5848 62.4579C17.4128 58.3147 11.6168 55.0169 5.41284 52.6875L7.95097 51.8409Z" fill="#2F773A"/>
</svg>
