<svg width="34" height="34" viewBox="0 0 34 34" fill="none" xmlns="http://www.w3.org/2000/svg">
<path d="M17.0651 2.65627C16.6979 2.65361 16.3984 2.94912 16.3957 3.31568C16.3931 3.68225 16.6879 3.98174 17.0551 3.9844C17.4217 3.98705 17.7212 3.69221 17.7238 3.32564C17.7265 2.95908 17.4316 2.65959 17.0651 2.65627Z" fill="#2F773A"/>
<path d="M17.0349 6.64074C14.4709 6.62255 12.371 8.69104 12.3516 11.2543C12.3323 13.8173 14.4019 15.9182 16.9652 15.9375C16.977 15.9376 16.9889 15.9376 17.0007 15.9376C19.5476 15.9376 21.6291 13.8753 21.6484 11.324C21.6677 8.76103 19.5982 6.66007 17.0349 6.64074ZM17.0006 14.6096C16.9922 14.6096 16.9835 14.6095 16.9751 14.6094C15.1442 14.5956 13.6659 13.095 13.6797 11.2642C13.6934 9.4417 15.1801 7.96867 16.9994 7.96867C17.0078 7.96867 17.0166 7.96874 17.0249 7.96881C18.8558 7.98262 20.3341 9.48327 20.3203 11.314C20.3065 13.1366 18.8199 14.6096 17.0006 14.6096Z" fill="#2F773A"/>
<path d="M19.8974 3.15945C19.552 3.03687 19.1722 3.21782 19.0496 3.56354C18.9271 3.90925 19.1081 4.28876 19.4537 4.41135C22.3787 5.44802 24.3281 8.23383 24.3047 11.3434C24.302 11.7101 24.597 12.0097 24.9638 12.0125C24.9654 12.0125 24.9672 12.0125 24.9689 12.0125C25.3332 12.0125 25.63 11.7184 25.6328 11.3534C25.6604 7.67801 23.3555 4.38512 19.8974 3.15945Z" fill="#2F773A"/>
<path d="M21.0745 24.9982C25.4914 19.3128 28.2517 16.3481 28.289 11.374C28.3357 5.11562 23.2568 0 16.999 0C10.8141 0 5.75809 5.0089 5.71107 11.2046C5.67309 16.3136 8.48467 19.2743 12.932 24.9972C8.50771 25.6584 5.71107 27.3197 5.71107 29.3516C5.71107 30.7128 6.96921 31.9342 9.25379 32.7908C11.3332 33.5706 14.0842 34 17 34C19.9159 34 22.6669 33.5706 24.7463 32.7908C27.0308 31.9341 28.289 30.7127 28.289 29.3516C28.289 27.3207 25.4949 25.6598 21.0745 24.9982ZM7.03913 11.2146C7.08057 5.74747 11.5414 1.32813 16.9991 1.32813C22.5214 1.32813 27.0021 5.84296 26.9609 11.3641C26.9256 16.0878 23.9983 18.9989 19.3248 25.0912C18.4912 26.1773 17.7256 27.2042 17.001 28.2088C16.2785 27.2036 15.5283 26.1951 14.6822 25.0908C9.81552 18.7434 7.00314 16.0523 7.03913 11.2146ZM17 32.6719C11.299 32.6719 7.03913 30.919 7.03913 29.3516C7.03913 28.1892 9.58569 26.7209 13.8674 26.2124C14.8139 27.4543 15.6437 28.5825 16.4576 29.7348C16.5819 29.9108 16.7839 30.0156 16.9994 30.0157C16.9996 30.0157 16.9998 30.0157 17 30.0157C17.2153 30.0157 17.4173 29.9113 17.5418 29.7356C18.3479 28.5984 19.2005 27.4423 20.1389 26.2131C24.4166 26.7221 26.9609 28.19 26.9609 29.3517C26.9608 30.919 22.7011 32.6719 17 32.6719Z" fill="#2F773A"/>
</svg>
