<svg width="34" height="22" viewBox="0 0 34 22" fill="none" xmlns="http://www.w3.org/2000/svg">
<path d="M32.4545 3.09091H1.54545C0.69192 3.09091 0 2.39899 0 1.54545C0 0.69192 0.69192 0 1.54545 0H32.4545C33.3081 0 34 0.69192 34 1.54545C34 2.39899 33.3081 3.09091 32.4545 3.09091Z" fill="black"/>
<path d="M32.4545 12.3643H1.54545C0.69192 12.3643 0 11.6724 0 10.8189C0 9.96536 0.69192 9.27344 1.54545 9.27344H32.4545C33.3081 9.27344 34 9.96536 34 10.8189C34 11.6724 33.3081 12.3643 32.4545 12.3643Z" fill="black"/>
<path d="M32.4545 21.6358H1.54545C0.69192 21.6358 0 20.9439 0 20.0904C0 19.2368 0.69192 18.5449 1.54545 18.5449H32.4545C33.3081 18.5449 34 19.2368 34 20.0904C34 20.9439 33.3081 21.6358 32.4545 21.6358Z" fill="black"/>
</svg>
