<svg width="25" height="25" viewBox="0 0 25 25" fill="none" xmlns="http://www.w3.org/2000/svg">
<path d="M24.7511 23.5265L17.9991 16.7744C17.9987 16.774 17.9987 16.7734 17.9991 16.7731C19.4444 15.0685 20.2842 12.9331 20.3874 10.7006C20.6779 4.65234 15.8649 -0.216219 9.81377 0.0074075C4.4837 0.209155 0.209152 4.4837 0.00740425 9.81378C-0.216174 15.865 4.65243 20.678 10.7008 20.3872C12.9331 20.284 15.0684 19.4442 16.773 17.999C16.7734 17.9986 16.7739 17.9986 16.7743 17.999L23.5265 24.7511C23.8673 25.0866 24.4156 25.0824 24.7511 24.7416C25.083 24.4045 25.083 23.8635 24.7511 23.5265ZM1.95197 12.1642C1.28724 9.19701 2.15552 6.26862 4.21212 4.21207C6.26871 2.15552 9.19701 1.28719 12.1643 1.95197C14.9717 2.58109 17.8182 5.42734 18.4474 8.23442C19.1125 11.202 18.2441 14.1307 16.1874 16.1874C14.1307 18.2441 11.2018 19.1125 8.23427 18.4473C5.42719 17.818 2.58109 14.9714 1.95197 12.1642Z" fill="#BFBCBC"/>
</svg>
