<svg width="37" height="37" viewBox="0 0 37 37" fill="none" xmlns="http://www.w3.org/2000/svg">
<path d="M26.881 19.9435L26.8811 19.9435C27.2638 19.5606 27.4788 19.0414 27.4788 18.5C27.4788 17.9586 27.2638 17.4394 26.8811 17.0565L26.881 17.0565L19.9435 10.119L19.9436 10.1189L19.9373 10.1129C19.5523 9.74099 19.0365 9.5352 18.5012 9.53986C17.9659 9.54451 17.4538 9.75923 17.0753 10.1378C16.6967 10.5163 16.482 11.0284 16.4774 11.5637C16.4727 12.099 16.6785 12.6148 17.0504 12.9998L17.0503 12.9999L17.0565 13.006L20.5088 16.4583H11.5625C11.021 16.4583 10.5017 16.6734 10.1188 17.0563C9.73594 17.4392 9.52083 17.9585 9.52083 18.5C9.52083 19.0415 9.73594 19.5608 10.1188 19.9437C10.5017 20.3266 11.021 20.5417 11.5625 20.5417H20.5088L17.0565 23.994L17.0564 23.9939L17.0504 24.0002C16.6785 24.3852 16.4727 24.901 16.4774 25.4363C16.482 25.9716 16.6967 26.4837 17.0753 26.8622C17.4538 27.2408 17.9659 27.4555 18.5012 27.4601C19.0365 27.4648 19.5523 27.259 19.9373 26.8871L19.9374 26.8872L19.9435 26.881L26.881 19.9435ZM3.51774 3.51774C5.44721 1.58828 8.06326 0.502992 10.7919 0.5H26.2081C28.9367 0.502992 31.5528 1.58828 33.4823 3.51774C35.4118 5.44727 36.4971 8.06343 36.5 10.7922V26.2078C36.4971 28.9366 35.4118 31.5527 33.4823 33.4823C31.5527 35.4118 28.9366 36.4971 26.2078 36.5H10.7922C8.06343 36.4971 5.44727 35.4118 3.51774 33.4823C1.58828 31.5528 0.502992 28.9367 0.5 26.2081V10.7919C0.502992 8.06326 1.58828 5.44721 3.51774 3.51774Z" fill="white" stroke="#2F773A"/>
</svg>
