<svg width="37" height="37" viewBox="0 0 37 37" fill="none" xmlns="http://www.w3.org/2000/svg">
<path d="M10.119 17.0565L10.1189 17.0565C9.73618 17.4394 9.52116 17.9586 9.52116 18.5C9.52116 19.0414 9.73618 19.5606 10.1189 19.9435L10.119 19.9435L17.0565 26.881L17.0564 26.8811L17.0627 26.8871C17.4477 27.259 17.9635 27.4648 18.4988 27.4601C19.0341 27.4555 19.5462 27.2408 19.9247 26.8622C20.3033 26.4837 20.518 25.9716 20.5226 25.4363C20.5273 24.901 20.3215 24.3853 19.9496 24.0002L19.9497 24.0001L19.9435 23.994L16.4912 20.5417L25.4375 20.5417C25.979 20.5417 26.4983 20.3266 26.8812 19.9437C27.2641 19.5608 27.4792 19.0415 27.4792 18.5C27.4792 17.9585 27.2641 17.4392 26.8812 17.0563C26.4983 16.6734 25.979 16.4583 25.4375 16.4583L16.4912 16.4583L19.9435 13.006L19.9436 13.0061L19.9496 12.9998C20.3215 12.6148 20.5273 12.099 20.5226 11.5637C20.518 11.0284 20.3033 10.5163 19.9247 10.1378C19.5462 9.75923 19.0341 9.54451 18.4988 9.53986C17.9635 9.53521 17.4477 9.74099 17.0627 10.1129L17.0626 10.1128L17.0565 10.119L10.119 17.0565ZM33.4823 33.4823C31.5528 35.4117 28.9367 36.497 26.2081 36.5L10.7919 36.5C8.06326 36.497 5.4472 35.4117 3.51774 33.4823C1.58821 31.5527 0.502921 28.9366 0.499999 26.2078L0.499998 10.7922C0.50292 8.06344 1.5882 5.44727 3.51774 3.51774C5.44727 1.58821 8.06343 0.502925 10.7922 0.500002L26.2078 0.500001C28.9366 0.502923 31.5527 1.58821 33.4823 3.51774C35.4117 5.4472 36.497 8.06326 36.5 10.7919L36.5 26.2081C36.497 28.9367 35.4117 31.5528 33.4823 33.4823Z" fill="white" stroke="#2F773A"/>
</svg>
