<svg width="111" height="38" viewBox="0 0 111 38" fill="none" xmlns="http://www.w3.org/2000/svg">
<path d="M44.5547 33.3863L49.1098 22.8573H47.6121L43.8987 31.6161L40.1976 22.8573H38.7247L43.2674 33.4169L44.5547 33.3863Z" fill="#4969B2"/>
<path d="M52.8913 33.3863V22.8573H51.505V33.3863H52.8913Z" fill="#4969B2"/>
<path d="M60.2933 33.3863V24.0823H63.6787V22.8573H55.534V24.0823H58.907V33.3863H60.2933Z" fill="#4969B2"/>
<path d="M75.3389 33.3863L70.8271 22.8573H69.4902L64.9723 33.4169H66.439L67.454 31.022H72.8447L73.8659 33.3863H75.3389ZM70.1029 24.7561L70.1525 24.5785L70.1958 24.7561L72.3434 29.8276H67.943L70.1029 24.7561Z" fill="#4969B2"/>
<path d="M85.4456 31.1016L78.8605 22.8573H77.6908V33.3863H79.0833V25.1297L85.6251 33.3863H86.801V22.8573H85.4209L85.4456 31.1016Z" fill="#4969B2"/>
<path d="M94.7414 33.6006C95.3224 33.6305 95.9033 33.5408 96.4473 33.3371C96.9914 33.1334 97.4868 32.8201 97.9022 32.4171C98.3176 32.014 98.6439 31.53 98.8605 30.9957C99.077 30.4614 99.1792 29.8884 99.1604 29.313V22.8144H97.7679V29.2089C97.7956 29.615 97.7373 30.0224 97.5967 30.4049C97.4561 30.7874 97.2363 31.1366 96.9514 31.4301C96.6664 31.7236 96.3226 31.955 95.9421 32.1094C95.5615 32.2637 95.1526 32.3377 94.7414 32.3265C92.7981 32.3265 91.7088 30.9055 91.7088 29.1905V22.8144H90.3225V29.2947C90.303 29.8711 90.4044 30.4453 90.6205 30.9809C90.8366 31.5165 91.1625 32.002 91.5778 32.4067C91.9931 32.8113 92.4886 33.1263 93.0332 33.3318C93.5777 33.5373 94.1594 33.6288 94.7414 33.6006Z" fill="#4969B2"/>
<path d="M104.05 33.3858V29.4168H106.996L109.366 33.3919H111L108.425 29.2146C109.11 29.0446 109.715 28.6482 110.14 28.0912C110.566 27.5342 110.786 26.85 110.765 26.1521C110.765 24.1676 109.292 22.8385 107.225 22.8385H102.688V33.3858H104.05ZM104.05 24.0573H107.144C107.429 24.0441 107.714 24.0883 107.981 24.1874C108.249 24.2864 108.493 24.4383 108.699 24.6337C108.905 24.829 109.069 25.0638 109.18 25.3238C109.292 25.5838 109.349 25.8635 109.348 26.146C109.355 26.4285 109.303 26.7095 109.195 26.9713C109.088 27.2331 108.926 27.47 108.722 27.6672C108.517 27.8645 108.274 28.0178 108.007 28.1175C107.739 28.2173 107.454 28.2613 107.169 28.2469H104.074L104.05 24.0573Z" fill="#4969B2"/>
<path d="M32.7646 16.53L27.1697 26.1218L26.9036 19.813L21.4697 16.53H32.7646Z" fill="#DE754D"/>
<path d="M0 16.3401C0 16.3401 3.00167 16.432 5.17402 20.2908C7.34636 24.1495 11.6972 31.8977 13.325 34.654C14.9527 37.4102 17.1312 39.1743 19.7492 37.055C22.3671 34.9357 25.5049 29.0251 25.5049 29.0251C25.5049 29.0251 22.9613 31.9222 19.7739 29.5947C16.5866 27.2672 16.0605 24.6518 14.0924 21.5832C13.4965 20.6208 12.8348 19.6999 12.1119 18.8269C11.4356 18.0438 10.5956 17.4154 9.64996 16.985C8.70429 16.5546 7.6755 16.3325 6.63463 16.334L0 16.3401Z" fill="#4969B2"/>
<path d="M1.04381 10.5585H1.53654V7.60215C1.53654 7.29712 1.51308 7.08595 1.51308 7.08595H1.53654C1.53654 7.08595 2.01754 8.35298 3.56613 8.35298C5.07952 8.35298 6.17057 7.14461 6.17057 5.27927C6.17057 3.46085 5.20857 2.20556 3.63652 2.20556C2.00581 2.20556 1.54827 3.46085 1.54827 3.46085H1.52481C1.52481 3.46085 1.53654 3.26142 1.53654 2.99159C1.53654 2.54578 1.3371 2.34634 0.856104 2.34634H0.28125V2.79215H0.785713C0.949957 2.79215 1.04381 2.87427 1.04381 3.05024V10.5585ZM1.52481 5.291C1.52481 3.44912 2.53374 2.68656 3.61306 2.68656C4.80969 2.68656 5.65437 3.69549 5.65437 5.27927C5.65437 6.92171 4.71584 7.88371 3.56613 7.88371C2.22871 7.88371 1.52481 6.59322 1.52481 5.291Z" fill="#666666"/>
<path d="M7.22954 5.24407C7.22954 6.9921 8.59042 8.35298 10.268 8.35298C11.9457 8.35298 13.3066 6.9921 13.3066 5.24407C13.3066 3.53124 11.9457 2.20556 10.268 2.20556C8.59042 2.20556 7.22954 3.53124 7.22954 5.24407ZM7.74573 5.24407C7.74573 3.78934 8.87198 2.68656 10.268 2.68656C11.6641 2.68656 12.7904 3.78934 12.7904 5.24407C12.7904 6.734 11.6641 7.87198 10.268 7.87198C8.87198 7.87198 7.74573 6.734 7.74573 5.24407Z" fill="#666666"/>
<path d="M16.2357 8.2122H16.7637L18.3826 3.66029C18.4882 3.37873 18.5821 3.02678 18.5821 3.02678H18.6055C18.6055 3.02678 18.6994 3.37873 18.805 3.66029L20.4357 8.2122H20.9636L22.7703 3.07371C22.8524 2.85081 22.9932 2.79215 23.2161 2.79215H23.3686V2.34634H23.2278C22.6412 2.34634 22.4653 2.4402 22.2658 3.02678L20.9049 6.94517C20.7994 7.23846 20.7055 7.57868 20.7055 7.57868H20.682C20.682 7.57868 20.5765 7.22673 20.4826 6.94517L18.8754 2.36981H18.324L16.7167 6.94517C16.6229 7.22673 16.5173 7.57868 16.5173 7.57868H16.4938C16.4938 7.57868 16.3882 7.22673 16.2944 6.94517L14.9335 3.02678C14.7341 2.4402 14.5581 2.34634 13.9715 2.34634H13.8307V2.79215H13.9832C14.2061 2.79215 14.3469 2.85081 14.429 3.07371L16.2357 8.2122Z" fill="#666666"/>
<path d="M23.8876 5.291C23.8876 7.15634 25.2603 8.35298 26.9144 8.35298C28.1814 8.35298 29.0027 7.54349 29.0027 7.54349L28.7328 7.13288C28.7328 7.13288 28.0407 7.87198 26.9144 7.87198C25.5535 7.87198 24.4038 6.89824 24.4038 5.19715H29.1083C29.1083 5.19715 29.1317 5.00944 29.1317 4.88039C29.1317 3.46085 28.334 2.20556 26.7384 2.20556C25.2368 2.20556 23.8876 3.30834 23.8876 5.291ZM24.439 4.73961C24.6502 3.367 25.6474 2.6631 26.7267 2.6631C27.7004 2.6631 28.5569 3.30834 28.6155 4.73961H24.439Z" fill="#666666"/>
<path d="M30.797 8.2122H31.2897V5.67815C31.2897 5.291 31.3366 4.85693 31.4657 4.44632C31.7238 3.57817 32.2986 2.80388 33.2137 2.80388C33.3428 2.80388 33.4835 2.82734 33.4835 2.82734V2.33461C33.4835 2.33461 33.3193 2.29942 33.1433 2.29942C32.2165 2.29942 31.583 2.97985 31.2897 3.8832H31.2662C31.2662 3.8832 31.2897 3.67202 31.2897 3.4022V2.99159C31.2897 2.54578 31.0903 2.34634 30.6093 2.34634H30.0344V2.79215H30.5389C30.7031 2.79215 30.797 2.87427 30.797 3.05024V8.2122Z" fill="#666666"/>
<path d="M34.0039 5.291C34.0039 7.15634 35.3766 8.35298 37.0307 8.35298C38.2978 8.35298 39.119 7.54349 39.119 7.54349L38.8491 7.13288C38.8491 7.13288 38.157 7.87198 37.0307 7.87198C35.6698 7.87198 34.5201 6.89824 34.5201 5.19715H39.2246C39.2246 5.19715 39.248 5.00944 39.248 4.88039C39.248 3.46085 38.4503 2.20556 36.8548 2.20556C35.3531 2.20556 34.0039 3.30834 34.0039 5.291ZM34.5553 4.73961C34.7665 3.367 35.7637 2.6631 36.843 2.6631C37.8168 2.6631 38.6732 3.30834 38.7318 4.73961H34.5553Z" fill="#666666"/>
<path d="M40.4088 5.27927C40.4088 7.09768 41.3708 8.35298 42.9429 8.35298C44.5618 8.35298 45.0428 7.08595 45.0428 7.08595H45.0663C45.0663 7.08595 45.0428 7.26193 45.0428 7.53176C45.0428 8.01276 45.2423 8.2122 45.7233 8.2122H46.2981V7.76639H45.7937C45.6294 7.76639 45.5356 7.68427 45.5356 7.50829V0.680439C45.5356 0.199439 45.3361 0 44.8551 0H44.2803V0.445805H44.7847C44.949 0.445805 45.0428 0.527927 45.0428 0.703902V2.99159C45.0428 3.26142 45.0663 3.47259 45.0663 3.47259H45.0428C45.0428 3.47259 44.5149 2.20556 43.0367 2.20556C41.4999 2.20556 40.4088 3.41393 40.4088 5.27927ZM42.9663 7.87198C41.7697 7.87198 40.925 6.86305 40.925 5.27927C40.925 3.63683 41.8636 2.67483 43.0133 2.67483C44.3859 2.67483 45.0546 3.96532 45.0546 5.26754C45.0546 7.10942 44.0457 7.87198 42.9663 7.87198Z" fill="#666666"/>
<path d="M50.834 8.2122H51.3267V7.60215C51.3267 7.29712 51.3033 7.08595 51.3033 7.08595H51.3267C51.3267 7.08595 51.8547 8.35298 53.3329 8.35298C54.8697 8.35298 55.9608 7.14461 55.9608 5.27927C55.9608 3.46085 54.9988 2.20556 53.4267 2.20556C51.8077 2.20556 51.3267 3.47259 51.3267 3.47259H51.3033C51.3033 3.47259 51.3267 3.26142 51.3267 2.99159V0.680439C51.3267 0.199439 51.1273 0 50.6463 0H50.0714V0.445805H50.5759C50.7401 0.445805 50.834 0.527927 50.834 0.703902V8.2122ZM51.315 5.291C51.315 3.44912 52.3239 2.68656 53.4032 2.68656C54.5999 2.68656 55.4446 3.69549 55.4446 5.27927C55.4446 6.92171 54.506 7.88371 53.3563 7.88371C51.9837 7.88371 51.315 6.59322 51.315 5.291Z" fill="#666666"/>
<path d="M56.8121 9.74905L56.5188 10.1245C56.5188 10.1245 56.9294 10.6759 57.692 10.6759C58.4311 10.6759 58.9238 10.1949 59.1819 9.58481L61.892 3.07371C61.9858 2.85081 62.1149 2.79215 62.3378 2.79215H62.4316V2.34634H62.3495C61.7629 2.34634 61.6221 2.45193 61.3875 3.02678L59.7333 7.02729C59.616 7.30885 59.5339 7.57868 59.5339 7.57868H59.5104C59.5104 7.57868 59.4283 7.30885 59.311 7.02729L57.6451 3.02678C57.4104 2.45193 57.2697 2.34634 56.6831 2.34634H56.601V2.79215H56.6948C56.9177 2.79215 57.0468 2.85081 57.1406 3.07371L59.2641 8.177L58.8417 9.15073C58.6071 9.70212 58.2551 10.2066 57.692 10.2066C57.1875 10.2066 56.8121 9.76078 56.8121 9.74905Z" fill="#666666"/>
</svg>
