<svg width="146" height="55" viewBox="0 0 146 55" fill="none" xmlns="http://www.w3.org/2000/svg">
<g clip-path="url(#clip0_190_892)">
<path d="M97.3162 40.6315C98.4445 40.2615 100.25 39.761 101.56 39.4905V40.5516C100.316 40.8369 98.7911 41.2949 97.9916 41.6437C96.1765 42.3773 95.6382 43.3553 95.6382 44.3969C95.6382 45.8036 96.4651 46.4084 97.5386 46.4084C98.2656 46.4084 98.746 46.1231 100.021 45.1956L100.838 44.5746L101.161 45.0636L100.193 46.0856C98.7331 47.6032 97.8546 48.4068 96.0492 48.4068C94.0182 48.4068 92.4707 47.2104 92.4707 44.9544C92.482 43.207 93.4201 41.9094 97.3162 40.6315ZM99.8856 45.6439V39.1074C99.8856 36.5629 99.2779 35.8783 97.5257 35.8783C96.681 35.8855 95.8433 36.0342 95.0466 36.3184L96.5231 35.3632L96.0782 37.4822C95.917 38.7961 95.2819 39.3829 94.3954 39.3829C93.5475 39.3829 93.0059 38.9428 92.8721 38.1506C93.1945 35.9761 95.29 34.5645 98.588 34.5645C101.715 34.5645 103.076 35.9467 103.076 39.497V45.4548C103.076 46.3334 103.374 46.679 103.882 46.679C104.251 46.679 104.509 46.4834 104.815 46.0791L105.444 46.6186C104.799 47.8868 103.949 48.353 102.665 48.353C100.996 48.3481 100.005 47.3163 99.8856 45.6439Z" fill="white"/>
<path d="M116.243 50.5168C116.243 49.5078 115.598 48.6602 113.893 48.6602H110.887C110.06 48.6602 109.307 48.5934 108.754 48.4075V48.2771C107.376 47.9055 106.744 47.1165 106.744 46.0293C106.744 44.8328 107.55 43.6853 109.31 42.215L109.955 42.6453C109.354 43.3479 109.081 43.8695 109.081 44.6177C109.081 45.3039 109.438 45.7457 110.648 45.7457H114.003C117.517 45.7457 118.922 47.1997 118.922 49.4948C118.922 52.0621 116.441 54.3849 111.651 54.3849C107.46 54.3849 105.964 52.9407 105.964 51.1248C105.964 49.7865 106.87 48.7466 109.251 47.8028L109.513 48.0065C108.691 48.952 108.369 49.5812 108.369 50.5445C108.369 52.2561 109.626 52.957 111.915 52.957C114.76 52.9586 116.243 51.8828 116.243 50.5168ZM111.836 34.5603C115.144 34.5603 117.067 36.2148 117.067 39.007C117.067 41.6803 115.11 43.4245 111.818 43.4245C108.493 43.4245 106.57 41.7586 106.57 39.007C106.573 36.293 108.53 34.5603 111.836 34.5603ZM109.56 39.0038C109.56 40.9598 110.314 42.2313 111.77 42.2313C113.277 42.2313 114.103 40.9158 114.103 38.9353C114.103 37.007 113.297 35.7518 111.855 35.7518C110.414 35.7518 109.56 37.0412 109.56 39.0038ZM118.709 34.5293L119.125 34.8031V36.7054H115.207V35.8904L118.709 34.5293Z" fill="white"/>
<path d="M122.29 42.2821V40.8395C122.29 39.3382 122.263 38.6422 122.208 37.5501L120.306 37.3039V36.2884L124.819 34.5605L125.253 34.8425L125.538 38.2249V42.2821C125.538 43.9757 125.564 46.7875 125.619 48.015H122.208C122.263 46.7875 122.29 43.9757 122.29 42.2821ZM120.517 46.9L123.289 46.3539H124.998L127.769 46.9V48.015H120.515L120.517 46.9ZM123.989 38.6373H125.78L125.264 39.1084C125.93 36.1596 127.695 34.5605 129.294 34.5605C130.274 34.5605 131.154 35.0822 131.428 36.039C131.397 37.3919 130.764 38.1581 129.684 38.1581C128.963 38.1581 128.394 37.8321 127.825 37.1914L127.068 36.3536L128.272 36.4204C126.955 37.2143 125.983 38.6194 125.501 40.4809L123.989 40.3815V38.6373Z" fill="white"/>
<path d="M132.166 41.4801C132.166 37.1181 135.187 34.5605 138.677 34.5605C142.134 34.5605 145.189 37.0888 145.189 41.4801C145.189 45.8715 142.302 48.3997 138.677 48.3997C135.008 48.3997 132.166 45.8405 132.166 41.4801ZM141.676 41.5094C141.676 37.7408 140.606 35.889 138.683 35.889C136.726 35.889 135.691 37.7408 135.691 41.5094C135.691 45.2781 136.72 47.0728 138.677 47.0728C140.6 47.0728 141.67 45.2879 141.67 41.5094H141.676Z" fill="white"/>
<path d="M121.115 21.8599C120.757 23.0619 120.8 24.3494 121.237 25.5242C123.196 30.9278 129.247 30.9262 132.682 29.7786C136.406 28.5333 137.927 25.6611 138.021 25.4981C138.114 25.3351 138.459 24.6081 138.459 24.6081C138.685 24.2299 138.991 22.846 139.043 22.5526C139.094 22.2592 138.87 22.3 138.87 22.3C137.333 22.9732 135.414 21.6708 135.414 21.6708C135.414 21.6708 133.707 20.5526 131.557 19.092C129.407 17.6315 127.592 17.4978 127.592 17.4978C126.87 17.3724 126.13 17.3879 125.414 17.5435C124.528 17.7485 123.705 18.1668 123.013 18.7627C122.322 19.3587 121.783 20.1148 121.442 20.9666C121.323 21.2437 121.212 21.5469 121.115 21.8599Z" fill="url(#paint0_linear_190_892)"/>
<path d="M115.366 21.8599C115.724 23.0619 115.681 24.3494 115.244 25.5242C113.285 30.9278 107.234 30.9262 103.799 29.7786C100.076 28.5333 98.5539 25.6611 98.4604 25.4981C98.3669 25.3351 98.0219 24.6081 98.0219 24.6081C97.7962 24.2299 97.49 22.846 97.4368 22.5526C97.3836 22.2592 97.6109 22.3 97.6109 22.3C99.1487 22.9732 101.067 21.6708 101.067 21.6708C101.067 21.6708 102.774 20.5526 104.924 19.092C107.075 17.6315 108.89 17.4978 108.89 17.4978C109.612 17.3724 110.351 17.3879 111.067 17.5435C111.953 17.7485 112.777 18.1668 113.468 18.7627C114.16 19.3587 114.699 20.1148 115.039 20.9666C115.157 21.2437 115.27 21.5469 115.366 21.8599Z" fill="url(#paint1_linear_190_892)"/>
<path d="M119.908 18.5193C118.73 18.9156 117.456 18.9087 116.283 18.4998C110.886 16.6709 110.719 10.5533 111.757 7.05357C112.885 3.25393 115.682 1.63529 115.84 1.53586C115.998 1.43643 116.707 1.06803 116.707 1.06803C117.074 0.830045 118.433 0.481215 118.722 0.416013C119.01 0.350811 118.978 0.579018 118.978 0.579018C118.354 2.15201 119.695 4.05428 119.695 4.05428C119.695 4.05428 120.848 5.7479 122.352 7.88164C123.856 10.0154 124.04 11.8443 124.04 11.8443C124.182 12.5707 124.188 13.318 124.056 14.0465C123.878 14.9474 123.488 15.7915 122.919 16.5073C122.349 17.223 121.617 17.7891 120.785 18.1575C120.511 18.2927 120.218 18.4134 119.908 18.5193Z" fill="url(#paint2_linear_190_892)"/>
<path d="M43.4527 0.0880226H45.524L48.4642 40.1693L74.6614 0L81.2139 0.0880226L48.5012 48.3766H44.4956L40.1562 0.0880226" fill="white"/>
<path d="M82.7974 43.8798H60.7784L86.2679 5.65193L86.6902 5.01621C86.7573 4.91581 86.8459 4.832 86.9495 4.77104C87.053 4.71008 87.1688 4.67353 87.2883 4.66412C87.3839 4.66148 87.4781 4.68757 87.5591 4.7391C87.6405 4.7928 87.7069 4.86669 87.7521 4.95372C87.7972 5.04075 87.8196 5.13802 87.817 5.23627V7.78729H92.9897C92.9897 7.78729 94.4791 -0.180382 87.9121 0.0233736C87.9121 0.0233736 83.9048 0.0918364 81.7609 3.39105L75.7549 12.6318L69.1363 22.8163L56.1618 42.7812C56.1618 42.7812 53.9534 46.9606 59.1568 48.1603C59.3507 48.2029 59.5483 48.227 59.7467 48.232C60.8396 48.2663 64.6825 48.3804 67.0536 48.3804H82.7974V43.8798Z" fill="white"/>
<path d="M37.1321 48.3774H41.8325L38.3507 5.84614C38.3507 5.84614 38.1605 1.74169 35.2461 0.374077C34.222 -0.0895603 33.0583 -0.125876 32.0078 0.273015C30.7924 0.716388 28.8581 1.67159 27.4766 3.56571C25.3182 6.52751 1.43579 40.6982 1.43579 40.6982C1.43579 40.6982 -2.81972 46.2583 3.32176 47.9177C3.32176 47.9177 5.73966 48.1785 9.52932 48.1785H27.3154V43.9175H5.30444L32.0158 4.58938C32.0836 4.48521 32.1753 4.39921 32.2831 4.33874C32.3909 4.27827 32.5116 4.24513 32.6348 4.24218C32.7456 4.23717 32.8545 4.27286 32.9413 4.34267C33.0281 4.41247 33.087 4.51169 33.1071 4.62198L33.2006 5.47776L33.8035 11.6719L37.1321 48.3774Z" fill="white"/>
</g>
<defs>
<linearGradient id="paint0_linear_190_892" x1="129.961" y1="30.3883" x2="129.961" y2="17.4147" gradientUnits="userSpaceOnUse">
<stop stop-color="#8EC75C"/>
<stop offset="0.27" stop-color="#73C059"/>
<stop offset="1" stop-color="#00834C"/>
</linearGradient>
<linearGradient id="paint1_linear_190_892" x1="106.52" y1="30.3883" x2="106.52" y2="17.4147" gradientUnits="userSpaceOnUse">
<stop offset="0.16" stop-color="#00AEEF"/>
<stop offset="1" stop-color="#3F7CC0"/>
</linearGradient>
<linearGradient id="paint2_linear_190_892" x1="110.486" y1="10.2248" x2="123.315" y2="9.84422" gradientUnits="userSpaceOnUse">
<stop stop-color="#FBB317"/>
<stop offset="0.12" stop-color="#F9A61D"/>
<stop offset="0.17" stop-color="#F78B1E"/>
<stop offset="0.26" stop-color="#F46920"/>
<stop offset="0.35" stop-color="#F14D22"/>
<stop offset="0.44" stop-color="#EF3723"/>
<stop offset="0.55" stop-color="#EE2823"/>
<stop offset="0.67" stop-color="#ED1F24"/>
<stop offset="0.84" stop-color="#ED1C24"/>
</linearGradient>
<clipPath id="clip0_190_892">
<rect width="145.189" height="54.3865" fill="white"/>
</clipPath>
</defs>
</svg>
