<svg width="37" height="37" viewBox="0 0 37 37" fill="none" xmlns="http://www.w3.org/2000/svg">
<path d="M26.2083 0H10.7917C7.93048 0.00306064 5.18735 1.14102 3.16419 3.16419C1.14102 5.18735 0.00306064 7.93048 0 10.7917V26.2083C0.00306064 29.0695 1.14102 31.8126 3.16419 33.8358C5.18735 35.859 7.93048 36.9969 10.7917 37H26.2083C29.0695 36.9969 31.8126 35.859 33.8358 33.8358C35.859 31.8126 36.9969 29.0695 37 26.2083V10.7917C36.9969 7.93048 35.859 5.18735 33.8358 3.16419C31.8126 1.14102 29.0695 0.00306064 26.2083 0ZM26.5275 19.59L19.59 26.5275C19.2992 26.8083 18.9098 26.9637 18.5055 26.9602C18.1013 26.9567 17.7147 26.7945 17.4288 26.5087C17.143 26.2228 16.9808 25.8362 16.9773 25.432C16.9738 25.0277 17.1292 24.6383 17.41 24.3475L21.7159 20.0417H11.5625C11.1536 20.0417 10.7615 19.8792 10.4724 19.5901C10.1833 19.301 10.0208 18.9089 10.0208 18.5C10.0208 18.0911 10.1833 17.699 10.4724 17.4099C10.7615 17.1208 11.1536 16.9583 11.5625 16.9583H21.7159L17.41 12.6525C17.1292 12.3617 16.9738 11.9723 16.9773 11.568C16.9808 11.1638 17.143 10.7772 17.4288 10.4913C17.7147 10.2055 18.1013 10.0433 18.5055 10.0398C18.9098 10.0363 19.2992 10.1917 19.59 10.4725L26.5275 17.41C26.8165 17.6991 26.9788 18.0912 26.9788 18.5C26.9788 18.9088 26.8165 19.3009 26.5275 19.59Z" fill="white"/>
</svg>
